# xmcd
#
# Track frame offsets:
#	150
#	23302
#	40595
#	61905
#	88175
#	105357
#	120892
#	138510
#	160615
#	178790
#	205407
#	235902
#	252002
#	270162
#	292065
#	310650
#	328192
#
# Disc length: 4682 seconds
#
# Revision: 1177702970
# Processed by: cddbd v1.5.2PL0 Copyright (c) Steve Scherf et al.
# Submitted via: EZCDAudioConverter 9.1.1.1
#
DISCID=d8124811
DTITLE=Elton John - Elton John -Love Songs (UK Version)
DYEAR=1995
DGENRE=Pop
TTITLE0=Sacrifice
TTITLE1=Candle in the Wind
TTITLE2=I Guess That's Why They Call it the Blues
TTITLE3=Don't Let the Sun Go Down On Me
TTITLE4=Sorry Seems To Be the Hardest Word
TTITLE5=Your Song
TTITLE6=Daniel
TTITLE7=Nikita
TTITLE8=Your Song
TTITLE9=The One
TTITLE10=Someone Saved My Life Tonight
TTITLE11=True Love
TTITLE12=Can You Feel The Love Tonight
TTITLE13=Circle of Life
TTITLE14=Blessed
TTITLE15=Please
TTITLE16=Song For Guy
EXTD=
EXTT0=
EXTT1=
EXTT2=
EXTT3=
EXTT4=
EXTT5=
EXTT6=
EXTT7=
EXTT8=
EXTT9=
EXTT10=
EXTT11=
EXTT12=
EXTT13=
EXTT14=
EXTT15=
EXTT16=
PLAYORDER=
